<?xml version="1.0" encoding="UTF-8" standalone="no"?>
<!DOCTYPE svg >
<svg class="brand-title" width="103" height="31" viewBox="0 0 145 48" version="1.1" xmlns="http://www.w3.org/2000/svg" xmlns:xlink="http://www.w3.org/1999/xlink" xml:space="preserve" xmlns:serif="http://www.serif.com/" style="fill-rule:evenodd;clip-rule:evenodd;stroke-linejoin:round;stroke-miterlimit:2;">
    <g >
        <g>
            <path d="M13.626,29.036C13.626,28.263 13.434,27.676 13.051,27.275C12.669,26.874 11.94,26.456 10.866,26.021C8.488,25.21 6.745,24.322 5.636,23.355C4.527,22.389 3.972,20.988 3.972,19.153C3.972,17.501 4.548,16.147 5.702,15.088C6.856,14.031 8.418,13.424 10.387,13.27L10.387,10.212L12.745,10.212L12.745,13.313C14.605,13.555 16.068,14.236 17.132,15.357C18.196,16.477 18.714,17.921 18.684,19.689L18.654,19.762L13.73,19.762C13.73,18.796 13.513,18.081 13.081,17.617C12.648,17.153 12.039,16.922 11.253,16.922C10.438,16.922 9.861,17.127 9.522,17.537C9.184,17.948 9.015,18.496 9.015,19.182C9.015,19.829 9.197,20.343 9.56,20.726C9.923,21.107 10.656,21.554 11.761,22.065C14.058,22.78 15.782,23.659 16.931,24.703C18.079,25.746 18.654,27.181 18.654,29.006C18.654,30.697 18.102,32.054 16.998,33.078C15.893,34.103 14.382,34.702 12.462,34.875L12.462,37.788L10.089,37.788L10.089,34.875C8.08,34.711 6.428,34.091 5.135,33.013C3.843,31.936 3.221,30.344 3.27,28.239L3.3,28.152L8.209,28.152C8.209,29.263 8.486,30.055 9.038,30.528C9.589,31.002 10.333,31.238 11.268,31.238C12.093,31.238 12.693,31.037 13.066,30.637C13.439,30.236 13.626,29.702 13.626,29.036Z" style="fill:url(#_Linear1);fill-rule:nonzero;"/>
            <path d="M32.053,26.76L30.024,20.211M30.024,20.211L29.934,20.211L27.92,26.76L26.79,30.72L25.503,34.629L20.19,34.629L27.278,13.531L29.979,13.531L29.979,13.545L29.994,13.531L32.695,13.531L34.947,20.224M34.947,20.224L37.163,26.806M37.163,26.806L39.797,34.629L34.485,34.629L33.217,30.528L32.053,26.76" style="fill:url(#_Linear2);fill-rule:nonzero;"/>
            <path d="M54.434,20.211L54.434,13.531L59.462,13.531L59.462,20.212M54.434,26.761L54.434,20.211M59.462,26.756L59.462,34.629L54.434,34.629L46.266,20.212L41.362,20.212L41.348,13.531L46.392,13.531L54.434,26.761M59.462,20.212L59.462,26.756" style="fill:url(#_Linear3);"/>
            <path d="M41.348,26.819L46.4,26.761L46.392,34.629L41.348,34.629L41.348,26.819Z" style="fill:url(#_Linear4);"/>
            <path d="M62.629,20.212C62.914,18.404 63.692,16.897 64.961,15.646C66.597,14.033 68.703,13.226 71.28,13.226C74.055,13.226 76.151,13.828 77.569,15.03C78.986,16.233 79.67,17.878 79.62,19.965L79.591,20.051L74.861,20.051C74.861,19.018 74.577,18.25 74.01,17.747C73.443,17.245 72.588,16.994 71.444,16.994C70.27,16.994 69.325,17.443 68.609,18.342C68.184,18.875 67.888,19.488 67.715,20.212L62.629,20.212Z" style="fill:url(#_Linear5);"/>
            <path d="M67.557,26.761C67.631,27.996 67.974,29.037 68.601,29.825C69.313,30.719 70.31,31.166 71.593,31.166C72.518,31.166 73.247,31.093 73.779,30.948C74.311,30.803 74.731,30.61 75.04,30.369L75.04,26.601L71.19,26.601L71.19,23.355L80.083,23.355L80.083,31.716C79.327,32.605 78.263,33.363 76.89,33.991C75.517,34.619 73.752,34.933 71.593,34.933C68.897,34.933 66.709,34.131 65.028,32.528C63.462,31.034 62.649,29.085 62.542,26.761L67.557,26.761Z" style="fill:url(#_Linear6);"/>
            <path d="M95.809,25.601L88.156,25.601L88.156,30.861L97.332,30.861L97.332,34.629L83.112,34.629L83.112,13.531L97.346,13.531L97.346,17.298L88.156,17.298L88.156,21.834L95.809,21.834L95.809,25.601Z" style="fill:url(#_Linear7);fill-rule:nonzero;"/>
            <path d="M100.167,26.76L100.167,20.212M100.167,20.212L100.167,13.531L105.21,13.531L105.21,20.212M105.21,20.211L105.21,26.76M105.21,26.76L105.21,30.861L114.535,30.861L114.535,34.629L100.167,34.629L100.167,26.76" style="fill:url(#_Linear8);fill-rule:nonzero;"/>
            <path d="M128.781,10.219C122.703,10.219 117.73,14.197 116.344,20.219C116.352,20.196 119.37,20.217 119.688,20.219C120.035,20.22 122.562,20.219 122.562,20.219L120.344,16.563L125.969,16.563L127.938,21.156L128,21.156L130.062,16.563L135.719,16.563L131.031,24.281L135.875,32.156L130.219,32.156L128.062,27.406L128,27.406L125.844,32.156L120.188,32.156L123.5,26.75L118.25,26.75C118.25,26.75 116.86,26.745 116.156,26.75C117.623,32.647 122.786,37.781 128.781,37.781C135.923,37.781 141.719,31.61 141.719,24C141.719,16.39 135.923,10.219 128.781,10.219Z" style="fill:url(#_Linear9);fill-rule:nonzero;"/>
        </g>
    </g>
    <defs>
        <linearGradient id="_Linear1" x1="0" y1="0" x2="1" y2="0" gradientUnits="userSpaceOnUse" gradientTransform="matrix(145,1.06581e-14,-1.06581e-14,145,6.62189e-06,24)"><stop offset="0" style="stop-color:rgb(192,255,58);stop-opacity:1"/><stop offset="1" style="stop-color:rgb(0,255,58);stop-opacity:1"/></linearGradient>
        <linearGradient id="_Linear2" x1="0" y1="0" x2="1" y2="0" gradientUnits="userSpaceOnUse" gradientTransform="matrix(145,1.06581e-14,-1.06581e-14,145,6.62189e-06,24)"><stop offset="0" style="stop-color:rgb(192,255,58);stop-opacity:1"/><stop offset="1" style="stop-color:rgb(0,255,58);stop-opacity:1"/></linearGradient>
        <linearGradient id="_Linear3" x1="0" y1="0" x2="1" y2="0" gradientUnits="userSpaceOnUse" gradientTransform="matrix(145,1.06581e-14,-1.06581e-14,145,-2.20223e-06,24)"><stop offset="0" style="stop-color:rgb(192,255,58);stop-opacity:1"/><stop offset="1" style="stop-color:rgb(0,255,58);stop-opacity:1"/></linearGradient>
        <linearGradient id="_Linear4" x1="0" y1="0" x2="1" y2="0" gradientUnits="userSpaceOnUse" gradientTransform="matrix(145,1.06581e-14,-1.06581e-14,145,-2.20223e-06,24)"><stop offset="0" style="stop-color:rgb(192,255,58);stop-opacity:1"/><stop offset="1" style="stop-color:rgb(0,255,58);stop-opacity:1"/></linearGradient>
        <linearGradient id="_Linear5" x1="0" y1="0" x2="1" y2="0" gradientUnits="userSpaceOnUse" gradientTransform="matrix(145,1.06581e-14,-1.06581e-14,145,-2.20223e-06,24)"><stop offset="0" style="stop-color:rgb(192,255,58);stop-opacity:1"/><stop offset="1" style="stop-color:rgb(0,255,58);stop-opacity:1"/></linearGradient>
        <linearGradient id="_Linear6" x1="0" y1="0" x2="1" y2="0" gradientUnits="userSpaceOnUse" gradientTransform="matrix(145,1.06581e-14,-1.06581e-14,145,-2.20223e-06,24)"><stop offset="0" style="stop-color:rgb(192,255,58);stop-opacity:1"/><stop offset="1" style="stop-color:rgb(0,255,58);stop-opacity:1"/></linearGradient>
        <linearGradient id="_Linear7" x1="0" y1="0" x2="1" y2="0" gradientUnits="userSpaceOnUse" gradientTransform="matrix(145,1.06581e-14,-1.06581e-14,145,6.62189e-06,24)"><stop offset="0" style="stop-color:rgb(192,255,58);stop-opacity:1"/><stop offset="1" style="stop-color:rgb(0,255,58);stop-opacity:1"/></linearGradient>
        <linearGradient id="_Linear8" x1="0" y1="0" x2="1" y2="0" gradientUnits="userSpaceOnUse" gradientTransform="matrix(145,1.06581e-14,-1.06581e-14,145,6.62189e-06,24)"><stop offset="0" style="stop-color:rgb(192,255,58);stop-opacity:1"/><stop offset="1" style="stop-color:rgb(0,255,58);stop-opacity:1"/></linearGradient>
        <linearGradient id="_Linear9" x1="0" y1="0" x2="1" y2="0" gradientUnits="userSpaceOnUse" gradientTransform="matrix(25.5625,0,0,25.5625,116.156,24)"><stop offset="0" style="stop-color:rgb(192,255,58);stop-opacity:1"/><stop offset="1" style="stop-color:rgb(0,255,58);stop-opacity:1"/></linearGradient>
    </defs>
</svg>


